<svg id="visual" viewBox="0 0 900 600" width="900" height="600" xmlns="http://www.w3.org/2000/svg" xmlns:xlink="http://www.w3.org/1999/xlink" version="1.1"><g stroke-width="1" stroke-linejoin="bevel"><path d="M432 291L489 269L465 229Z" fill="#ff5d39" stroke="#ff5d39"></path><path d="M465 229L415 160L432 291Z" fill="#ff4021" stroke="#ff4021"></path><path d="M415 160L301 263L432 291Z" fill="#ff9e81" stroke="#ff9e81"></path><path d="M396 138L301 263L415 160Z" fill="#ffd8cb" stroke="#ffd8cb"></path><path d="M313 399L405 412L432 291Z" fill="#ff4021" stroke="#ff4021"></path><path d="M535 435L580 385L489 269Z" fill="#ff4021" stroke="#ff4021"></path><path d="M580 385L614 283L489 269Z" fill="#ffece5" stroke="#ffece5"></path><path d="M489 269L567 139L465 229Z" fill="#ffece5" stroke="#ffece5"></path><path d="M465 229L567 139L415 160Z" fill="#ff8a69" stroke="#ff8a69"></path><path d="M415 160L489 70L396 138Z" fill="#ffb299" stroke="#ffb299"></path><path d="M614 283L567 139L489 269Z" fill="#ff0000" stroke="#ff0000"></path><path d="M535 435L489 269L432 291Z" fill="#ff5d39" stroke="#ff5d39"></path><path d="M405 412L535 435L432 291Z" fill="#ff8a69" stroke="#ff8a69"></path><path d="M301 263L313 399L432 291Z" fill="#ffffff" stroke="#ffffff"></path><path d="M405 412L470 468L535 435Z" fill="#ff5d39" stroke="#ff5d39"></path><path d="M567 139L489 70L415 160Z" fill="#ffd8cb" stroke="#ffd8cb"></path><path d="M429 0L335 103L396 138Z" fill="#ff4021" stroke="#ff4021"></path><path d="M396 138L264 188L301 263Z" fill="#ffffff" stroke="#ffffff"></path><path d="M614 283L633 173L567 139Z" fill="#ffb299" stroke="#ffb299"></path><path d="M602 0L501 0L489 70Z" fill="#ffd8cb" stroke="#ffd8cb"></path><path d="M335 103L264 188L396 138Z" fill="#ffb299" stroke="#ffb299"></path><path d="M301 263L235 395L313 399Z" fill="#ffece5" stroke="#ffece5"></path><path d="M377 484L470 468L405 412Z" fill="#ffece5" stroke="#ffece5"></path><path d="M682 393L663 263L614 283Z" fill="#ffffff" stroke="#ffffff"></path><path d="M614 283L663 263L633 173Z" fill="#ff9e81" stroke="#ff9e81"></path><path d="M313 399L377 484L405 412Z" fill="#ffffff" stroke="#ffffff"></path><path d="M663 263L684 174L633 173Z" fill="#ff5d39" stroke="#ff5d39"></path><path d="M633 173L683 107L567 139Z" fill="#ffb299" stroke="#ffb299"></path><path d="M201 311L235 395L301 263Z" fill="#ffb299" stroke="#ffb299"></path><path d="M313 399L299 537L377 484Z" fill="#ff9e81" stroke="#ff9e81"></path><path d="M204 126L200 223L264 188Z" fill="#ff4021" stroke="#ff4021"></path><path d="M264 188L200 223L301 263Z" fill="#ffb299" stroke="#ffb299"></path><path d="M200 223L201 311L301 263Z" fill="#ff0000" stroke="#ff0000"></path><path d="M576 519L682 393L580 385Z" fill="#ffffff" stroke="#ffffff"></path><path d="M580 385L682 393L614 283Z" fill="#ffece5" stroke="#ffece5"></path><path d="M663 263L769 214L684 174Z" fill="#ff0000" stroke="#ff0000"></path><path d="M576 519L580 385L535 435Z" fill="#ff4021" stroke="#ff4021"></path><path d="M501 0L429 0L489 70Z" fill="#ff5d39" stroke="#ff5d39"></path><path d="M489 70L429 0L396 138Z" fill="#ffc5b2" stroke="#ffc5b2"></path><path d="M335 103L204 126L264 188Z" fill="#ff5d39" stroke="#ff5d39"></path><path d="M602 0L489 70L567 139Z" fill="#ff8a69" stroke="#ff8a69"></path><path d="M684 174L683 107L633 173Z" fill="#ffd8cb" stroke="#ffd8cb"></path><path d="M478 600L576 519L470 468Z" fill="#ffc5b2" stroke="#ffc5b2"></path><path d="M470 468L576 519L535 435Z" fill="#ff8a69" stroke="#ff8a69"></path><path d="M299 0L204 126L335 103Z" fill="#ffc5b2" stroke="#ffc5b2"></path><path d="M683 107L602 0L567 139Z" fill="#ff9e81" stroke="#ff9e81"></path><path d="M429 0L299 0L335 103Z" fill="#ff5d39" stroke="#ff5d39"></path><path d="M235 499L299 537L313 399Z" fill="#ff9e81" stroke="#ff9e81"></path><path d="M377 484L478 600L470 468Z" fill="#ff7551" stroke="#ff7551"></path><path d="M803 389L769 214L663 263Z" fill="#ff9e81" stroke="#ff9e81"></path><path d="M684 174L769 214L683 107Z" fill="#ff8a69" stroke="#ff8a69"></path><path d="M683 107L670 0L602 0Z" fill="#ffd8cb" stroke="#ffd8cb"></path><path d="M235 395L235 499L313 399Z" fill="#ff8a69" stroke="#ff8a69"></path><path d="M136 471L235 499L235 395Z" fill="#ffb299" stroke="#ffb299"></path><path d="M389 600L478 600L377 484Z" fill="#ff7551" stroke="#ff7551"></path><path d="M811 0L670 0L683 107Z" fill="#ffffff" stroke="#ffffff"></path><path d="M329 600L389 600L299 537Z" fill="#ffece5" stroke="#ffece5"></path><path d="M299 537L389 600L377 484Z" fill="#ff4021" stroke="#ff4021"></path><path d="M299 0L224 0L204 126Z" fill="#ffb299" stroke="#ffb299"></path><path d="M478 600L575 600L576 519Z" fill="#ffb299" stroke="#ffb299"></path><path d="M576 519L685 537L682 393Z" fill="#ffffff" stroke="#ffffff"></path><path d="M575 600L685 537L576 519Z" fill="#ff7551" stroke="#ff7551"></path><path d="M682 393L803 389L663 263Z" fill="#ffece5" stroke="#ffece5"></path><path d="M194 600L329 600L299 537Z" fill="#ffb299" stroke="#ffb299"></path><path d="M816 474L803 389L682 393Z" fill="#ff8a69" stroke="#ff8a69"></path><path d="M200 223L82 288L201 311Z" fill="#ff4021" stroke="#ff4021"></path><path d="M102 438L136 471L235 395Z" fill="#ff7551" stroke="#ff7551"></path><path d="M68 207L82 288L200 223Z" fill="#ff5d39" stroke="#ff5d39"></path><path d="M68 207L200 223L204 126Z" fill="#ffc5b2" stroke="#ffc5b2"></path><path d="M102 438L235 395L201 311Z" fill="#ff7551" stroke="#ff7551"></path><path d="M235 499L194 600L299 537Z" fill="#ffffff" stroke="#ffffff"></path><path d="M803 389L838 261L769 214Z" fill="#ff8a69" stroke="#ff8a69"></path><path d="M769 214L835 124L683 107Z" fill="#ff0000" stroke="#ff0000"></path><path d="M97 61L68 207L204 126Z" fill="#ffffff" stroke="#ffffff"></path><path d="M0 421L102 438L82 288Z" fill="#ff5d39" stroke="#ff5d39"></path><path d="M82 288L102 438L201 311Z" fill="#ff7551" stroke="#ff7551"></path><path d="M838 261L835 124L769 214Z" fill="#ffc5b2" stroke="#ffc5b2"></path><path d="M224 0L97 61L204 126Z" fill="#ff4021" stroke="#ff4021"></path><path d="M685 537L816 474L682 393Z" fill="#ff5d39" stroke="#ff5d39"></path><path d="M900 391L900 269L838 261Z" fill="#ff0000" stroke="#ff0000"></path><path d="M820 600L816 474L685 537Z" fill="#ff4021" stroke="#ff4021"></path><path d="M575 600L707 600L685 537Z" fill="#ff0000" stroke="#ff0000"></path><path d="M88 600L194 600L136 471Z" fill="#ffc5b2" stroke="#ffc5b2"></path><path d="M136 471L194 600L235 499Z" fill="#ffd8cb" stroke="#ffd8cb"></path><path d="M224 0L111 0L97 61Z" fill="#ff8a69" stroke="#ff8a69"></path><path d="M835 124L811 0L683 107Z" fill="#ff5d39" stroke="#ff5d39"></path><path d="M900 391L838 261L803 389Z" fill="#ffece5" stroke="#ffece5"></path><path d="M838 261L900 171L835 124Z" fill="#ff0000" stroke="#ff0000"></path><path d="M835 124L900 90L811 0Z" fill="#ffb299" stroke="#ffb299"></path><path d="M68 207L0 275L82 288Z" fill="#ffd8cb" stroke="#ffd8cb"></path><path d="M0 475L88 600L136 471Z" fill="#ff7551" stroke="#ff7551"></path><path d="M0 219L0 275L68 207Z" fill="#ffece5" stroke="#ffece5"></path><path d="M0 219L68 207L0 61Z" fill="#ff5d39" stroke="#ff5d39"></path><path d="M900 269L900 171L838 261Z" fill="#ffece5" stroke="#ffece5"></path><path d="M0 61L68 207L97 61Z" fill="#ff8a69" stroke="#ff8a69"></path><path d="M900 525L900 391L816 474Z" fill="#ff7551" stroke="#ff7551"></path><path d="M816 474L900 391L803 389Z" fill="#ff9e81" stroke="#ff9e81"></path><path d="M900 171L900 90L835 124Z" fill="#ff8a69" stroke="#ff8a69"></path><path d="M0 275L0 421L82 288Z" fill="#ffb299" stroke="#ffb299"></path><path d="M0 0L0 61L97 61Z" fill="#ffc5b2" stroke="#ffc5b2"></path><path d="M0 475L136 471L102 438Z" fill="#ff4021" stroke="#ff4021"></path><path d="M707 600L820 600L685 537Z" fill="#ffd8cb" stroke="#ffd8cb"></path><path d="M0 421L0 475L102 438Z" fill="#ffc5b2" stroke="#ffc5b2"></path><path d="M820 600L900 525L816 474Z" fill="#ffffff" stroke="#ffffff"></path><path d="M900 90L900 0L811 0Z" fill="#ffb299" stroke="#ffb299"></path><path d="M111 0L0 0L97 61Z" fill="#ff5d39" stroke="#ff5d39"></path><path d="M820 600L900 600L900 525Z" fill="#ffffff" stroke="#ffffff"></path><path d="M0 475L0 600L88 600Z" fill="#ffffff" stroke="#ffffff"></path></g></svg>